# xmcd
#
# Track frame offsets: 
#        150
#        19560
#        43935
#        62890
#        80770
#        98647
#        114190
#        137490
#        161565
#        182140
#        199827
#        214655
#        228427
#        245040
#
# Disc length: 3784 seconds
#
# Revision: 0
# Processed by: cddbd v1.4PL0 Copyright (c) Steve Scherf et al.
# Submitted via: ExactAudioCopy v0.95a3
#
DISCID=be0ec60e
DTITLE=Hillbillies from Outerspace - Bad Advice
DYEAR=1900
DGENRE=Blues
TTITLE0=Bad Advice
TTITLE1=Better than that
TTITLE2=Love and tenderness
TTITLE3=My life
TTITLE4=Red boots
TTITLE5=Now I run
TTITLE6=Take me home
TTITLE7=Milk and Money
TTITLE8=Walk away
TTITLE9=Close your Eyes
TTITLE10=Follow You
TTITLE11=When will you awake
TTITLE12=War
TTITLE13=Outerspace, Now that I am dead
EXTD=
EXTT0=
EXTT1=
EXTT2=
EXTT3=
EXTT4=
EXTT5=
EXTT6=
EXTT7=
EXTT8=
EXTT9=
EXTT10=
EXTT11=
EXTT12=
EXTT13=
PLAYORDER=
